<svg width="72" height="73" viewBox="0 0 72 73" fill="none" xmlns="http://www.w3.org/2000/svg">
<rect y="0.276855" width="72" height="72" rx="36" fill="#4FA466"/>
<path d="M51.4928 36.2769H42.197L39.0984 40.9247H32.9012L29.8026 36.2769H20.5068" stroke="white" stroke-width="3.09859" stroke-linecap="round" stroke-linejoin="round"/>
<path d="M25.8519 25.6023L20.5068 36.2769V45.5727C20.5068 46.3945 20.8333 47.1826 21.4144 47.7637C21.9955 48.3448 22.7836 48.6713 23.6054 48.6713H48.3942C49.216 48.6713 50.0041 48.3448 50.5852 47.7637C51.1663 47.1826 51.4928 46.3945 51.4928 45.5727V36.2769L46.1477 25.6023C45.8912 25.086 45.4957 24.6516 45.0058 24.3478C44.5159 24.044 43.9509 23.8829 43.3744 23.8826H28.6251C28.0487 23.8829 27.4837 24.044 26.9938 24.3478C26.5039 24.6516 26.1084 25.086 25.8519 25.6023V25.6023Z" stroke="white" stroke-width="3.09859" stroke-linecap="round" stroke-linejoin="round"/>
</svg>
