<svg width="44" height="45" viewBox="0 0 44 45" fill="none" xmlns="http://www.w3.org/2000/svg">
<rect y="0.276855" width="44" height="44" rx="22" fill="#4FA466"/>
<path d="M25.999 18.277C27.5903 18.277 29.1164 18.9091 30.2417 20.0343C31.3669 21.1596 31.999 22.6857 31.999 24.277V31.277H27.999V24.277C27.999 23.7465 27.7883 23.2378 27.4132 22.8628C27.0382 22.4877 26.5295 22.277 25.999 22.277C25.4686 22.277 24.9599 22.4877 24.5848 22.8628C24.2097 23.2378 23.999 23.7465 23.999 24.277V31.277H19.999V24.277C19.999 22.6857 20.6312 21.1596 21.7564 20.0343C22.8816 18.9091 24.4077 18.277 25.999 18.277Z" fill="#25282B"/>
<path d="M16 19.2769H12V31.2769H16V19.2769Z" fill="#25282B"/>
<path d="M14 16.2769C15.1046 16.2769 16 15.3814 16 14.2769C16 13.1723 15.1046 12.2769 14 12.2769C12.8954 12.2769 12 13.1723 12 14.2769C12 15.3814 12.8954 16.2769 14 16.2769Z" fill="#25282B"/>
</svg>
