<svg width="44" height="45" viewBox="0 0 44 45" fill="none" xmlns="http://www.w3.org/2000/svg">
<rect y="0.276855" width="44" height="44" rx="22" fill="#4FA466"/>
<path d="M33 13.2769C32.0424 13.9524 30.9821 14.469 29.86 14.8069C29.2577 14.1144 28.4573 13.6236 27.567 13.4008C26.6767 13.1781 25.7395 13.2341 24.8821 13.5614C24.0247 13.8886 23.2884 14.4713 22.773 15.2306C22.2575 15.9899 21.9877 16.8892 22 17.8069V18.8069C20.2426 18.8525 18.5013 18.4627 16.931 17.6723C15.3607 16.882 14.0103 15.7155 13 14.2769C13 14.2769 9 23.2769 18 27.2769C15.9405 28.6749 13.4872 29.3758 11 29.2769C20 34.2769 31 29.2769 31 17.7769C30.9991 17.4984 30.9723 17.2205 30.92 16.9469C31.9406 15.9404 32.6608 14.6696 33 13.2769Z" fill="#25282B"/>
</svg>
